Full Credits to (Pitic):

 ######## ######## ######## ##          ######## ########  ######## ######
 ##       ##       ##       ##          ##       ##     ## ##       ##       
 ##       ##       ##       ##          ##       ##     ## ##       ##       
 ######   ######   ######   ##          ######   ########  ######   ######   
 ##       ##       ##       ##          ##       ##   ##   ##       ##       
 ##       ##       ##       ##          ##       ##    ##  ##       ##       
 ##       ######## ######## ########    ##       ##     ## ######## ######	

Genre:Action | Horror | Sci-Fi
 Language:English
 IMDb: 
http://www.imdb.com/title/tt0822847/
 Source:DVD5/EPIC Thanks!
 Subtitles:Romana 

 Format : MPEG-4
 Format profile : Base Media
 Codec ID : isom
 File size : 987 MiB
 Duration : 1h 23mn
 Overall bit rate : 1 647 Kbps

 Video
 ID : 1
 Format : AVC
 Format/Info : Advanced Video Codec
 Format profile : High@L4.1
 Format settings, CABAC : Yes
 Format settings, ReFrames : 3 frames
 Codec ID : avc1
 Codec ID/Info : Advanced Video Coding
 Duration : 1h 23mn
 Bit rate mode : Variable
 Bit rate : 1 202 Kbps
 Maximum bit rate : 6 754 Kbps
 Width : 720 pixels
 Height : 304 pixels
 Display aspect ratio : 2.35:1
 Frame rate mode : Constant
 Frame rate : 25.000 fps
 Color space : YUV
 Chroma subsampling : 4:2:0
 Bit depth : 8 bits
 Scan type : Progressive
 Bits/(Pixel*Frame) : 0.220
 Stream size : 719 MiB (73%)
 Writing library : x264

 Audio
 ID : 2
 Format : AAC
 Format/Info : Advanced Audio Codec
 Format version : Version 4
 Format profile : LC
 Format settings, SBR : No
 Codec ID : 40
 Duration : 1h 23mn
 Bit rate mode : Variable
 Bit rate : 443 Kbps
 Maximum bit rate : 485 Kbps
 Channel(s) : 6 channels
 Channel positions : Front: L C R, Side: L R, LFE
 Sampling rate : 48.0 KHz
 Stream size : 266 MiB (27%)


 Plot:
 A priest disobeys church law to track down the vampires who kidnapped his niece.



Greets:

 INK,CRYS,IMAGINE,LKRG,FXG,3Li,FLAWL3SS,TA,iLLUSiON,ViSiON,DTRG SAFCuk009,LU,TheFalcon007,MYSTiC,PrisM,Noir,WBZ,LAP,Rx,Kingdom,SAFCuk009+Fabreezy,HDLiTE,TWiZTED,ExtraTorrentRG.ELEKTRI4KA,MAGNAT,CM8
 And to all the other p2p grps past and present




 ==================================  http://thepiratebay.org/user/hiest
 ==================================




Screenshots:
 
http://www.pix2links.com/images/24452368247006519049.png
 
http://www.pix2links.com/images/74484776495395314252.png
 
http://www.pix2links.com/images/10036380613358178699.png
 
http://www.pix2links.com/images/94860729261497370841.png
 
http://www.pix2links.com/images/88005917874933089691.png
 
http://www.pix2links.com/images/44140129108418496971.png
 
http://www.pix2links.com/images/29321246040964931816.png


Full Credits to (Pitic):

 ######## ######## ######## ##          ######## ########  ######## ######
 ##       ##       ##       ##          ##       ##     ## ##       ##       
 ##       ##       ##       ##          ##       ##     ## ##       ##       
 ######   ######   ######   ##          ######   ########  ######   ######   
 ##       ##       ##       ##          ##       ##   ##   ##       ##       
 ##       ##       ##       ##          ##       ##    ##  ##       ##       
 ##       ######## ######## ########    ##       ##     ## ######## ######	